<svg width="256" height="256" viewBox="0 0 1024 1024" fill="none" xmlns="http://www.w3.org/2000/svg">
  <g transform="translate(84 51) scale(0.69)" fill="#000000">
    <path d="M921 486L981 423C1005 398 1034 397 1052 414C1061 423 1064 437 1064 454L1061 548L1014 500L969 478L921 486Z"/>
    <path d="M181 868L487 525C506 504 529 494 557 494H622C653 494 675 506 695 530L779 631L681 733L589 619C575 602 557 608 547 633L464 844C444 895 417 932 371 932H220C183 932 163 902 181 868Z"/>
    <path d="M517 731C511 763 527 794 554 822L610 894C628 918 649 933 679 933H703C732 933 752 918 773 894L1030 606C1059 574 1065 546 1058 519C1052 490 1028 469 1000 460C971 450 949 457 929 478L681 733L605 808C588 825 570 827 552 813C527 794 512 763 517 731Z"/>
  </g>
</svg>
