<svg width="240" height="240" viewBox="0 0 240 240" fill="none" xmlns="http://www.w3.org/2000/svg">
  <circle cx="120" cy="108" r="68" fill="#EAF3FF"/>
  <rect x="48" y="118" width="42" height="70" rx="10" fill="#1D1D1F"/>
  <rect x="96" y="88" width="48" height="100" rx="10" fill="#183A70"/>
  <rect x="150" y="108" width="42" height="80" rx="10" fill="#0071E3"/>
  <rect x="108" y="58" width="24" height="24" rx="12" fill="#35C6F4"/>
  <path d="M120 70L124.5 79H115.5L120 70Z" fill="#35C6F4"/>
  <rect x="58" y="132" width="8" height="8" rx="2" fill="#B8D8FF"/>
  <rect x="72" y="132" width="8" height="8" rx="2" fill="#B8D8FF"/>
  <rect x="58" y="146" width="8" height="8" rx="2" fill="#B8D8FF"/>
  <rect x="72" y="146" width="8" height="8" rx="2" fill="#B8D8FF"/>
  <rect x="108" y="102" width="8" height="8" rx="2" fill="#D6D9FF"/>
  <rect x="122" y="102" width="8" height="8" rx="2" fill="#D6D9FF"/>
  <rect x="108" y="116" width="8" height="8" rx="2" fill="#D6D9FF"/>
  <rect x="122" y="116" width="8" height="8" rx="2" fill="#D6D9FF"/>
  <rect x="108" y="130" width="8" height="8" rx="2" fill="#D6D9FF"/>
  <rect x="122" y="130" width="8" height="8" rx="2" fill="#D6D9FF"/>
  <rect x="160" y="122" width="8" height="8" rx="2" fill="#B8D8FF"/>
  <rect x="174" y="122" width="8" height="8" rx="2" fill="#B8D8FF"/>
  <rect x="160" y="136" width="8" height="8" rx="2" fill="#B8D8FF"/>
  <rect x="174" y="136" width="8" height="8" rx="2" fill="#B8D8FF"/>
  <path d="M42 192H198" stroke="#D7E6FA" stroke-width="8" stroke-linecap="round"/>
</svg>